<svg width="28" height="28" viewBox="0 0 28 28" fill="none" xmlns="http://www.w3.org/2000/svg">
<path fill-rule="evenodd" clip-rule="evenodd" d="M26.25 14C26.25 13.7679 26.1578 13.5454 25.9937 13.3813C25.8296 13.2172 25.6071 13.125 25.375 13.125H4.73725L10.2445 7.61951C10.3259 7.53815 10.3904 7.44157 10.4344 7.33528C10.4784 7.22898 10.5011 7.11506 10.5011 7.00001C10.5011 6.88495 10.4784 6.77103 10.4344 6.66474C10.3904 6.55844 10.3259 6.46186 10.2445 6.38051C10.1631 6.29915 10.0666 6.23462 9.96027 6.19059C9.85398 6.14656 9.74005 6.1239 9.625 6.1239C9.50995 6.1239 9.39602 6.14656 9.28973 6.19059C9.18343 6.23462 9.08685 6.29915 9.0055 6.38051L2.0055 13.3805C1.92401 13.4618 1.85936 13.5583 1.81525 13.6646C1.77114 13.771 1.74844 13.8849 1.74844 14C1.74844 14.1151 1.77114 14.2291 1.81525 14.3354C1.85936 14.4417 1.92401 14.5382 2.0055 14.6195L9.0055 21.6195C9.08685 21.7009 9.18343 21.7654 9.28973 21.8094C9.39602 21.8535 9.50995 21.8761 9.625 21.8761C9.74005 21.8761 9.85398 21.8535 9.96027 21.8094C10.0666 21.7654 10.1631 21.7009 10.2445 21.6195C10.3259 21.5382 10.3904 21.4416 10.4344 21.3353C10.4784 21.229 10.5011 21.1151 10.5011 21C10.5011 20.885 10.4784 20.771 10.4344 20.6647C10.3904 20.5584 10.3259 20.4619 10.2445 20.3805L4.73725 14.875H25.375C25.6071 14.875 25.8296 14.7828 25.9937 14.6187C26.1578 14.4546 26.25 14.2321 26.25 14Z" fill="white" fill-opacity="0.6"/>
</svg>
